# Blender v2.79 (sub 0) OBJ File: 'barril.blend'
# www.blender.org
mtllib barril.mtl
o Cylinder_Cylinder.001
v 0.000000 -1.619570 -1.000000
v 0.000000 1.789632 -1.000000
v 0.195090 -1.619570 -0.980785
v 0.195090 1.789632 -0.980785
v 0.382683 -1.619570 -0.923880
v 0.382683 1.789632 -0.923880
v 0.555570 -1.619570 -0.831470
v 0.555570 1.789632 -0.831470
v 0.707107 -1.619570 -0.707107
v 0.707107 1.789632 -0.707107
v 0.831470 -1.619570 -0.555570
v 0.831470 1.789632 -0.555570
v 0.923880 -1.619570 -0.382683
v 0.923880 1.789632 -0.382683
v 0.980785 -1.619570 -0.195090
v 0.980785 1.789632 -0.195090
v 1.000000 -1.619570 -0.000000
v 1.000000 1.789632 -0.000000
v 0.980785 -1.619570 0.195090
v 0.980785 1.789632 0.195090
v 0.923880 -1.619570 0.382683
v 0.923880 1.789632 0.382683
v 0.831470 -1.619570 0.555570
v 0.831470 1.789632 0.555570
v 0.707107 -1.619570 0.707107
v 0.707107 1.789632 0.707107
v 0.555570 -1.619570 0.831470
v 0.555570 1.789632 0.831470
v 0.382683 -1.619570 0.923880
v 0.382683 1.789632 0.923880
v 0.195090 -1.619570 0.980785
v 0.195090 1.789632 0.980785
v -0.000000 -1.619570 1.000000
v -0.000000 1.789632 1.000000
v -0.195091 -1.619570 0.980785
v -0.195091 1.789632 0.980785
v -0.382684 -1.619570 0.923879
v -0.382684 1.789632 0.923879
v -0.555571 -1.619570 0.831469
v -0.555571 1.789632 0.831469
v -0.707107 -1.619570 0.707106
v -0.707107 1.789632 0.707106
v -0.831470 -1.619570 0.555570
v -0.831470 1.789632 0.555570
v -0.923880 -1.619570 0.382683
v -0.923880 1.789632 0.382683
v -0.980785 -1.619570 0.195089
v -0.980785 1.789632 0.195089
v -1.000000 -1.619570 -0.000001
v -1.000000 1.789632 -0.000001
v -0.980785 -1.619570 -0.195091
v -0.980785 1.789632 -0.195091
v -0.923879 -1.619570 -0.382684
v -0.923879 1.789632 -0.382684
v -0.831469 -1.619570 -0.555571
v -0.831469 1.789632 -0.555571
v -0.707106 -1.619570 -0.707108
v -0.707106 1.789632 -0.707108
v -0.555569 -1.619570 -0.831470
v -0.555569 1.789632 -0.831470
v -0.382682 -1.619570 -0.923880
v -0.382682 1.789632 -0.923880
v -0.195089 -1.619570 -0.980786
v -0.195089 1.789632 -0.980786
vt 0.697249 0.702875
vt 0.675971 0.305229
vt 0.697249 0.305229
vt 0.675972 0.702875
vt 0.654693 0.305229
vt 0.654694 0.702875
vt 0.633416 0.305229
vt 0.633417 0.702875
vt 0.612138 0.305229
vt 0.612139 0.702875
vt 0.590861 0.305229
vt 0.590862 0.702875
vt 0.569583 0.305229
vt 0.569584 0.702876
vt 0.548306 0.305230
vt 0.548307 0.702876
vt 0.527028 0.305230
vt 0.527029 0.702876
vt 0.505750 0.305230
vt 0.505752 0.702876
vt 0.484473 0.305230
vt 0.484474 0.702876
vt 0.463195 0.305230
vt 0.463197 0.702876
vt 0.441918 0.305230
vt 0.441919 0.702876
vt 0.420640 0.305230
vt 0.420642 0.702877
vt 0.399362 0.305230
vt 0.399364 0.702877
vt 0.378085 0.305231
vt 0.378087 0.702877
vt 0.356807 0.305231
vt 0.356809 0.702877
vt 0.335529 0.305231
vt 0.335531 0.702877
vt 0.314252 0.305231
vt 0.314254 0.702878
vt 0.292974 0.305231
vt 0.292976 0.702878
vt 0.271697 0.305232
vt 0.271699 0.702878
vt 0.250419 0.305232
vt 0.250421 0.702878
vt 0.229141 0.305232
vt 0.229144 0.702878
vt 0.207864 0.305232
vt 0.207866 0.702879
vt 0.186586 0.305233
vt 0.186589 0.702879
vt 0.165309 0.305233
vt 0.846191 0.702875
vt 0.824914 0.305229
vt 0.846191 0.305229
vt 0.824914 0.702875
vt 0.803636 0.305229
vt 0.803636 0.702875
vt 0.782359 0.305229
vt 0.782359 0.702875
vt 0.761081 0.305229
vt 0.761081 0.702875
vt 0.739804 0.305229
vt 0.473268 0.713569
vt 0.558128 0.739311
vt 0.574189 0.902378
vt 0.718526 0.702875
vt 0.718526 0.305229
vt 0.739804 0.702875
vt 0.574733 0.257182
vt 0.410401 0.273367
vt 0.558547 0.092850
vt 0.165311 0.702879
vt 0.558128 0.918439
vt 0.539243 0.931058
vt 0.518258 0.939750
vt 0.495981 0.944181
vt 0.473268 0.944181
vt 0.450991 0.939750
vt 0.430007 0.931058
vt 0.411121 0.918439
vt 0.395061 0.902378
vt 0.382442 0.883493
vt 0.373750 0.862508
vt 0.369319 0.840232
vt 0.369319 0.817518
vt 0.395061 0.755372
vt 0.373750 0.795241
vt 0.382442 0.774257
vt 0.411121 0.739311
vt 0.430007 0.726692
vt 0.450991 0.718000
vt 0.495982 0.713569
vt 0.518258 0.718000
vt 0.539243 0.726692
vt 0.574189 0.755372
vt 0.586807 0.774257
vt 0.595500 0.795241
vt 0.599931 0.817518
vt 0.599931 0.840232
vt 0.595500 0.862509
vt 0.586808 0.883493
vt 0.394216 0.109036
vt 0.410401 0.092851
vt 0.429433 0.080134
vt 0.450580 0.071375
vt 0.473029 0.066909
vt 0.495919 0.066909
vt 0.518368 0.071374
vt 0.539515 0.080134
vt 0.574733 0.109036
vt 0.587450 0.128067
vt 0.596209 0.149215
vt 0.600675 0.171664
vt 0.600675 0.194554
vt 0.596209 0.217003
vt 0.587450 0.238150
vt 0.558548 0.273367
vt 0.495919 0.299309
vt 0.539516 0.286084
vt 0.518368 0.294843
vt 0.473029 0.299309
vt 0.450580 0.294843
vt 0.429432 0.286084
vt 0.394216 0.257182
vt 0.381499 0.238150
vt 0.372740 0.217003
vt 0.368274 0.194554
vt 0.368274 0.171665
vt 0.372740 0.149215
vt 0.381499 0.128068
vn 0.0980 0.0000 -0.9952
vn 0.2903 0.0000 -0.9569
vn 0.4714 0.0000 -0.8819
vn 0.6344 0.0000 -0.7730
vn 0.7730 0.0000 -0.6344
vn 0.8819 0.0000 -0.4714
vn 0.9569 0.0000 -0.2903
vn 0.9952 0.0000 -0.0980
vn 0.9952 0.0000 0.0980
vn 0.9569 0.0000 0.2903
vn 0.8819 0.0000 0.4714
vn 0.7730 0.0000 0.6344
vn 0.6344 0.0000 0.7730
vn 0.4714 0.0000 0.8819
vn 0.2903 0.0000 0.9569
vn 0.0980 0.0000 0.9952
vn -0.0980 0.0000 0.9952
vn -0.2903 0.0000 0.9569
vn -0.4714 0.0000 0.8819
vn -0.6344 0.0000 0.7730
vn -0.7730 0.0000 0.6344
vn -0.8819 0.0000 0.4714
vn -0.9569 0.0000 0.2903
vn -0.9952 0.0000 0.0980
vn -0.9952 0.0000 -0.0980
vn -0.9569 0.0000 -0.2903
vn -0.8819 0.0000 -0.4714
vn -0.7730 0.0000 -0.6344
vn -0.6344 0.0000 -0.7730
vn -0.4714 0.0000 -0.8819
vn 0.0000 1.0000 0.0000
vn -0.0980 0.0000 -0.9952
vn -0.2903 0.0000 -0.9569
vn 0.0000 -1.0000 0.0000
usemtl None
s off
f 2/1/1 3/2/1 1/3/1
f 4/4/2 5/5/2 3/2/2
f 6/6/3 7/7/3 5/5/3
f 8/8/4 9/9/4 7/7/4
f 10/10/5 11/11/5 9/9/5
f 12/12/6 13/13/6 11/11/6
f 14/14/7 15/15/7 13/13/7
f 16/16/8 17/17/8 15/15/8
f 18/18/9 19/19/9 17/17/9
f 20/20/10 21/21/10 19/19/10
f 22/22/11 23/23/11 21/21/11
f 24/24/12 25/25/12 23/23/12
f 26/26/13 27/27/13 25/25/13
f 28/28/14 29/29/14 27/27/14
f 30/30/15 31/31/15 29/29/15
f 32/32/16 33/33/16 31/31/16
f 34/34/17 35/35/17 33/33/17
f 36/36/18 37/37/18 35/35/18
f 38/38/19 39/39/19 37/37/19
f 40/40/20 41/41/20 39/39/20
f 42/42/21 43/43/21 41/41/21
f 44/44/22 45/45/22 43/43/22
f 46/46/23 47/47/23 45/45/23
f 48/48/24 49/49/24 47/47/24
f 50/50/25 51/51/25 49/49/25
f 52/52/26 53/53/26 51/54/26
f 54/55/27 55/56/27 53/53/27
f 56/57/28 57/58/28 55/56/28
f 58/59/29 59/60/29 57/58/29
f 60/61/30 61/62/30 59/60/30
f 30/63/31 22/64/31 6/65/31
f 64/66/32 1/3/32 63/67/32
f 62/68/33 63/67/33 61/62/33
f 31/69/34 47/70/34 15/71/34
f 2/1/1 4/4/1 3/2/1
f 4/4/2 6/6/2 5/5/2
f 6/6/3 8/8/3 7/7/3
f 8/8/4 10/10/4 9/9/4
f 10/10/5 12/12/5 11/11/5
f 12/12/6 14/14/6 13/13/6
f 14/14/7 16/16/7 15/15/7
f 16/16/8 18/18/8 17/17/8
f 18/18/9 20/20/9 19/19/9
f 20/20/10 22/22/10 21/21/10
f 22/22/11 24/24/11 23/23/11
f 24/24/12 26/26/12 25/25/12
f 26/26/13 28/28/13 27/27/13
f 28/28/14 30/30/14 29/29/14
f 30/30/15 32/32/15 31/31/15
f 32/32/16 34/34/16 33/33/16
f 34/34/17 36/36/17 35/35/17
f 36/36/18 38/38/18 37/37/18
f 38/38/19 40/40/19 39/39/19
f 40/40/20 42/42/20 41/41/20
f 42/42/21 44/44/21 43/43/21
f 44/44/22 46/46/22 45/45/22
f 46/46/23 48/48/23 47/47/23
f 48/48/24 50/50/24 49/49/24
f 50/50/25 52/72/25 51/51/25
f 52/52/26 54/55/26 53/53/26
f 54/55/27 56/57/27 55/56/27
f 56/57/28 58/59/28 57/58/28
f 58/59/29 60/61/29 59/60/29
f 60/61/30 62/68/30 61/62/30
f 6/65/31 4/73/31 2/74/31
f 2/74/31 64/75/31 6/65/31
f 62/76/31 60/77/31 58/78/31
f 58/78/31 56/79/31 54/80/31
f 54/80/31 52/81/31 50/82/31
f 50/82/31 48/83/31 46/84/31
f 46/84/31 44/85/31 38/86/31
f 42/87/31 40/88/31 38/86/31
f 38/86/31 36/89/31 34/90/31
f 34/90/31 32/91/31 38/86/31
f 30/63/31 28/92/31 22/64/31
f 26/93/31 24/94/31 22/64/31
f 22/64/31 20/95/31 18/96/31
f 18/96/31 16/97/31 14/98/31
f 14/98/31 12/99/31 10/100/31
f 10/100/31 8/101/31 6/65/31
f 6/65/31 64/75/31 62/76/31
f 62/76/31 58/78/31 54/80/31
f 54/80/31 50/82/31 38/86/31
f 44/85/31 42/87/31 38/86/31
f 38/86/31 32/91/31 30/63/31
f 28/92/31 26/93/31 22/64/31
f 22/64/31 18/96/31 14/98/31
f 14/98/31 10/100/31 22/64/31
f 6/65/31 62/76/31 54/80/31
f 50/82/31 46/84/31 38/86/31
f 38/86/31 30/63/31 6/65/31
f 22/64/31 10/100/31 6/65/31
f 6/65/31 54/80/31 38/86/31
f 64/66/32 2/1/32 1/3/32
f 62/68/33 64/66/33 63/67/33
f 63/102/34 1/103/34 3/104/34
f 3/104/34 5/105/34 7/106/34
f 7/106/34 9/107/34 11/108/34
f 11/108/34 13/109/34 7/106/34
f 15/71/34 17/110/34 19/111/34
f 19/111/34 21/112/34 23/113/34
f 23/113/34 25/114/34 31/69/34
f 27/115/34 29/116/34 31/69/34
f 31/69/34 33/117/34 39/118/34
f 35/119/34 37/120/34 39/118/34
f 39/118/34 41/121/34 43/122/34
f 43/122/34 45/123/34 47/70/34
f 47/70/34 49/124/34 51/125/34
f 51/125/34 53/126/34 55/127/34
f 55/127/34 57/128/34 63/102/34
f 59/129/34 61/130/34 63/102/34
f 63/102/34 3/104/34 15/71/34
f 7/106/34 13/109/34 15/71/34
f 15/71/34 19/111/34 31/69/34
f 25/114/34 27/115/34 31/69/34
f 33/117/34 35/119/34 39/118/34
f 39/118/34 43/122/34 47/70/34
f 47/70/34 51/125/34 63/102/34
f 57/128/34 59/129/34 63/102/34
f 3/104/34 7/106/34 15/71/34
f 19/111/34 23/113/34 31/69/34
f 31/69/34 39/118/34 47/70/34
f 51/125/34 55/127/34 63/102/34
f 63/102/34 15/71/34 47/70/34
