# Blender v2.78 (sub 0) OBJ File: ''
# www.blender.org
mtllib RUEDAFIN.mtl
o Cilindro.001
v 0.427982 -0.000000 0.999999
v -0.427982 0.195090 0.980785
v -0.427982 0.000000 0.999999
v 0.427982 0.195090 0.980785
v -0.427982 0.382683 0.923879
v 0.427982 0.382683 0.923879
v -0.427982 0.555570 0.831469
v 0.427982 0.555570 0.831469
v -0.427982 0.707107 0.707106
v 0.427982 0.707107 0.707106
v -0.427982 0.831470 0.555570
v 0.427982 0.831470 0.555570
v -0.427982 0.923879 0.382683
v 0.427982 0.923879 0.382683
v -0.427982 0.980785 0.195090
v 0.427982 0.980785 0.195090
v -0.427982 1.000000 -0.000001
v 0.427982 1.000000 -0.000001
v -0.427982 0.980785 -0.195091
v 0.427982 0.980785 -0.195091
v -0.427982 0.923879 -0.382684
v 0.427982 0.923879 -0.382684
v -0.427982 0.831470 -0.555571
v 0.427982 0.831470 -0.555571
v -0.427982 0.707107 -0.707107
v 0.427982 0.707107 -0.707107
v -0.427982 0.555570 -0.831470
v 0.427982 0.555570 -0.831470
v -0.427982 0.382683 -0.923880
v 0.427982 0.382683 -0.923880
v -0.427982 0.195090 -0.980786
v 0.427982 0.195090 -0.980786
v -0.427982 0.000000 -1.000001
v 0.427982 -0.000000 -1.000001
v -0.427982 -0.195091 -0.980786
v 0.427982 -0.195091 -0.980786
v -0.427982 -0.382684 -0.923880
v 0.427982 -0.382684 -0.923880
v -0.427982 -0.555571 -0.831470
v 0.427982 -0.555571 -0.831470
v -0.427982 -0.707107 -0.707107
v 0.427982 -0.707107 -0.707107
v -0.427982 -0.831470 -0.555570
v 0.427982 -0.831470 -0.555570
v -0.427982 -0.923880 -0.382683
v 0.427982 -0.923880 -0.382683
v -0.427982 -0.980785 -0.195090
v 0.427982 -0.980785 -0.195090
v -0.427982 -1.000000 0.000000
v 0.427982 -1.000000 0.000000
v -0.427982 -0.980785 0.195091
v 0.427982 -0.980785 0.195091
v -0.427982 -0.923879 0.382684
v 0.427982 -0.923879 0.382684
v -0.427982 -0.831469 0.555571
v 0.427982 -0.831469 0.555571
v -0.427982 -0.707106 0.707107
v 0.427982 -0.707106 0.707107
v -0.427982 -0.555569 0.831470
v 0.427982 -0.555569 0.831470
v -0.427982 -0.382682 0.923880
v 0.427982 -0.382682 0.923880
v -0.427982 -0.195089 0.980785
v 0.427982 -0.195089 0.980785
vt 0.9940 1.4599
vt 0.6178 1.6092
vt 0.6178 1.4599
vt 0.9940 1.6092
vt 0.6178 1.7498
vt 0.9940 1.7498
vt 0.6178 1.8764
vt 0.9940 1.8764
vt 0.6178 1.9840
vt 0.9957 -0.9943
vt 0.6208 -0.9124
vt 0.6208 -0.9943
vt 0.9957 -0.9124
vt 0.6208 -0.8160
vt 0.9957 -0.8160
vt 0.6208 -0.7090
vt 0.9957 -0.7090
vt 0.6208 -0.5954
vt 0.9957 -0.5954
vt 0.6208 -0.4795
vt 0.9957 -0.4795
vt 0.6208 -0.3659
vt 0.9957 -0.3659
vt 0.6208 -0.2589
vt 0.9957 -0.2589
vt 0.6208 -0.1625
vt 0.9957 -0.1625
vt 0.6208 -0.0806
vt 0.9957 -0.0806
vt 0.6208 -0.0162
vt 0.6209 2.9786
vt 0.9956 2.9004
vt 0.9956 2.9786
vt 0.6209 2.9004
vt 0.9956 2.8009
vt 0.6209 2.8009
vt 0.9956 2.6839
vt 0.6209 2.6839
vt 0.9956 2.5539
vt 0.6209 2.5539
vt 0.9956 2.4159
vt 0.6209 2.4159
vt 0.9956 2.2752
vt 0.6209 2.2752
vt 0.9956 2.1372
vt 0.6209 2.1372
vt 0.9956 2.0072
vt 0.9982 0.0045
vt 0.6182 0.1290
vt 0.6182 0.0045
vt 0.9982 0.1290
vt 0.6182 0.2674
vt 0.9982 0.2674
vt 0.6182 0.4144
vt 0.9982 0.4144
vt 0.6182 0.5642
vt 0.9982 0.5642
vt 0.6182 0.7111
vt 0.9982 0.7111
vt 0.6182 0.8495
vt 0.9982 0.8495
vt 0.6182 0.9740
vt 0.9940 1.0178
vt 0.6178 1.1584
vt 0.6178 1.0178
vt 0.9940 1.1584
vt 0.6178 1.3077
vt 0.9940 1.3077
vt 0.9940 1.9840
vt 0.9957 -0.0162
vt 0.6209 2.0072
vt 0.9982 0.9740
vt 0.3339 -0.0179
vt 0.1157 -0.1257
vt 0.0744 -0.8084
vt 0.3900 0.0288
vt 0.4437 0.9292
vt 0.2181 0.9659
vt 0.1157 -0.8756
vt 0.1643 -0.9285
vt 0.2182 -0.9648
vt 0.2755 -0.9834
vt 0.3339 -0.9834
vt 0.3912 -0.9648
vt 0.4451 -0.9285
vt 0.4937 -0.8756
vt 0.5350 -0.8084
vt 0.5674 -0.7293
vt 0.5897 -0.6415
vt 0.6011 -0.5482
vt 0.6011 -0.4531
vt 0.5897 -0.3598
vt 0.5674 -0.2720
vt 0.5350 -0.1929
vt 0.4937 -0.1256
vt 0.4451 -0.0728
vt 0.3912 -0.0364
vt 0.2755 -0.0179
vt 0.2182 -0.0364
vt 0.1643 -0.0728
vt 0.0744 -0.1929
vt 0.0083 -0.4531
vt 0.0420 -0.2720
vt 0.0196 -0.3598
vt 0.0083 -0.5482
vt 0.0196 -0.6415
vt 0.0420 -0.7293
vt 0.1645 0.9292
vt 0.1163 0.8758
vt 0.0752 0.8080
vt 0.0430 0.7281
vt 0.0208 0.6395
vt 0.0094 0.5453
vt 0.0094 0.4493
vt 0.0208 0.3552
vt 0.0430 0.2665
vt 0.0752 0.1867
vt 0.1163 0.1188
vt 0.1645 0.0655
vt 0.2181 0.0288
vt 0.2751 0.0101
vt 0.3331 0.0101
vt 0.4437 0.0655
vt 0.4919 0.1188
vt 0.5330 0.1867
vt 0.5652 0.2665
vt 0.5874 0.3552
vt 0.5987 0.4493
vt 0.5987 0.5453
vt 0.5874 0.6395
vt 0.5652 0.7281
vt 0.5330 0.8080
vt 0.4919 0.8758
vt 0.3900 0.9659
vt 0.3331 0.9846
vt 0.2751 0.9846
vn -0.0000 0.0980 0.9952
vn 0.0000 0.2903 0.9569
vn 0.0000 0.4714 0.8819
vn 0.0000 0.6344 0.7730
vn 0.0000 0.7730 0.6344
vn 0.0000 0.8819 0.4714
vn 0.0000 0.9569 0.2903
vn 0.0000 0.9952 0.0980
vn 0.0000 0.9952 -0.0980
vn 0.0000 0.9569 -0.2903
vn 0.0000 0.8819 -0.4714
vn 0.0000 0.7730 -0.6344
vn 0.0000 0.6344 -0.7730
vn -0.0000 0.4714 -0.8819
vn 0.0000 0.2903 -0.9569
vn -0.0000 0.0980 -0.9952
vn 0.0000 -0.0980 -0.9952
vn -0.0000 -0.2903 -0.9569
vn -0.0000 -0.4714 -0.8819
vn -0.0000 -0.6344 -0.7730
vn -0.0000 -0.7730 -0.6344
vn -0.0000 -0.8819 -0.4714
vn -0.0000 -0.9569 -0.2903
vn -0.0000 -0.9952 -0.0980
vn -0.0000 -0.9952 0.0980
vn -0.0000 -0.9569 0.2903
vn -0.0000 -0.8819 0.4714
vn -0.0000 -0.7730 0.6344
vn -0.0000 -0.6344 0.7730
vn 0.0000 -0.4714 0.8819
vn -0.0000 -0.2903 0.9569
vn 0.0000 -0.0980 0.9952
vn -1.0000 -0.0000 0.0000
vn 1.0000 -0.0000 0.0000
usemtl None.001
s 1
f 1/1/1 2/2/1 3/3/1
f 4/4/2 5/5/2 2/2/2
f 6/6/3 7/7/3 5/5/3
f 8/8/4 9/9/4 7/7/4
f 10/10/5 11/11/5 9/12/5
f 12/13/6 13/14/6 11/11/6
f 14/15/7 15/16/7 13/14/7
f 16/17/8 17/18/8 15/16/8
f 18/19/9 19/20/9 17/18/9
f 20/21/10 21/22/10 19/20/10
f 22/23/11 23/24/11 21/22/11
f 24/25/12 25/26/12 23/24/12
f 26/27/13 27/28/13 25/26/13
f 28/29/14 29/30/14 27/28/14
f 30/31/15 31/32/15 29/33/15
f 32/34/16 33/35/16 31/32/16
f 34/36/17 35/37/17 33/35/17
f 36/38/18 37/39/18 35/37/18
f 38/40/19 39/41/19 37/39/19
f 40/42/20 41/43/20 39/41/20
f 42/44/21 43/45/21 41/43/21
f 44/46/22 45/47/22 43/45/22
f 46/48/23 47/49/23 45/50/23
f 48/51/24 49/52/24 47/49/24
f 50/53/25 51/54/25 49/52/25
f 52/55/26 53/56/26 51/54/26
f 54/57/27 55/58/27 53/56/27
f 56/59/28 57/60/28 55/58/28
f 58/61/29 59/62/29 57/60/29
f 60/63/30 61/64/30 59/65/30
f 62/66/31 63/67/31 61/64/31
f 64/68/32 3/3/32 63/67/32
f 1/1/1 4/4/1 2/2/1
f 4/4/2 6/6/2 5/5/2
f 6/6/3 8/8/3 7/7/3
f 8/8/4 10/69/4 9/9/4
f 10/10/5 12/13/5 11/11/5
f 12/13/6 14/15/6 13/14/6
f 14/15/7 16/17/7 15/16/7
f 16/17/8 18/19/8 17/18/8
f 18/19/9 20/21/9 19/20/9
f 20/21/10 22/23/10 21/22/10
f 22/23/11 24/25/11 23/24/11
f 24/25/12 26/27/12 25/26/12
f 26/27/13 28/29/13 27/28/13
f 28/29/14 30/70/14 29/30/14
f 30/31/15 32/34/15 31/32/15
f 32/34/16 34/36/16 33/35/16
f 34/36/17 36/38/17 35/37/17
f 36/38/18 38/40/18 37/39/18
f 38/40/19 40/42/19 39/41/19
f 40/42/20 42/44/20 41/43/20
f 42/44/21 44/46/21 43/45/21
f 44/46/22 46/71/22 45/47/22
f 46/48/23 48/51/23 47/49/23
f 48/51/24 50/53/24 49/52/24
f 50/53/25 52/55/25 51/54/25
f 52/55/26 54/57/26 53/56/26
f 54/57/27 56/59/27 55/58/27
f 56/59/28 58/61/28 57/60/28
f 58/61/29 60/72/29 59/62/29
f 60/63/30 62/66/30 61/64/30
f 62/66/31 64/68/31 63/67/31
f 64/68/32 1/1/32 3/3/32
f 47/73/33 55/74/33 7/75/33
f 1/76/34 42/77/34 34/78/34
f 7/75/33 9/79/33 11/80/33
f 11/80/33 13/81/33 7/75/33
f 15/82/33 17/83/33 19/84/33
f 19/84/33 21/85/33 15/82/33
f 23/86/33 25/87/33 27/88/33
f 27/88/33 29/89/33 31/90/33
f 31/90/33 33/91/33 35/92/33
f 35/92/33 37/93/33 31/90/33
f 39/94/33 41/95/33 47/73/33
f 43/96/33 45/97/33 47/73/33
f 47/73/33 49/98/33 51/99/33
f 51/99/33 53/100/33 47/73/33
f 55/74/33 57/101/33 63/102/33
f 59/103/33 61/104/33 63/102/33
f 63/102/33 3/105/33 7/75/33
f 2/106/33 5/107/33 7/75/33
f 7/75/33 13/81/33 15/82/33
f 15/82/33 21/85/33 23/86/33
f 23/86/33 27/88/33 39/94/33
f 31/90/33 37/93/33 39/94/33
f 41/95/33 43/96/33 47/73/33
f 47/73/33 53/100/33 55/74/33
f 57/101/33 59/103/33 63/102/33
f 3/105/33 2/106/33 7/75/33
f 7/75/33 15/82/33 39/94/33
f 27/88/33 31/90/33 39/94/33
f 39/94/33 47/73/33 7/75/33
f 55/74/33 63/102/33 7/75/33
f 15/82/33 23/86/33 39/94/33
f 34/78/34 32/108/34 30/109/34
f 30/109/34 28/110/34 26/111/34
f 26/111/34 24/112/34 22/113/34
f 22/113/34 20/114/34 18/115/34
f 18/115/34 16/116/34 14/117/34
f 14/117/34 12/118/34 10/119/34
f 10/119/34 8/120/34 1/76/34
f 6/121/34 4/122/34 1/76/34
f 1/76/34 64/123/34 62/124/34
f 62/124/34 60/125/34 1/76/34
f 58/126/34 56/127/34 54/128/34
f 54/128/34 52/129/34 50/130/34
f 50/130/34 48/131/34 42/77/34
f 46/132/34 44/133/34 42/77/34
f 42/77/34 40/134/34 38/135/34
f 38/135/34 36/136/34 34/78/34
f 34/78/34 30/109/34 18/115/34
f 26/111/34 22/113/34 18/115/34
f 18/115/34 14/117/34 1/76/34
f 8/120/34 6/121/34 1/76/34
f 1/76/34 60/125/34 58/126/34
f 58/126/34 54/128/34 1/76/34
f 48/131/34 46/132/34 42/77/34
f 42/77/34 38/135/34 34/78/34
f 30/109/34 26/111/34 18/115/34
f 14/117/34 10/119/34 1/76/34
f 1/76/34 54/128/34 50/130/34
f 50/130/34 42/77/34 1/76/34
f 34/78/34 18/115/34 1/76/34
