# Blender v2.79 (sub 0) OBJ File: 'cono.blend'
# www.blender.org
mtllib cono.mtl
o Cube_Cube.001
v -0.966400 -0.014778 0.980881
v -0.966400 0.145189 0.980881
v -0.966400 -0.014778 -1.019119
v -0.966400 0.145189 -1.019119
v 1.033600 -0.014778 0.980881
v 1.033600 0.145189 0.980881
v 1.033600 -0.014778 -1.019119
v 1.033600 0.145189 -1.019119
v 0.038221 0.139058 -1.014242
v 0.038221 2.500310 -0.014242
v 0.233311 0.139058 -0.995027
v 0.420904 0.139058 -0.938122
v 0.593791 0.139058 -0.845712
v 0.745328 0.139058 -0.721349
v 0.869691 0.139058 -0.569812
v 0.962101 0.139058 -0.396926
v 1.019006 0.139058 -0.209332
v 1.038221 0.139058 -0.014242
v 1.019006 0.139058 0.180848
v 0.962101 0.139058 0.368441
v 0.869691 0.139058 0.541328
v 0.745328 0.139058 0.692865
v 0.593791 0.139058 0.817227
v 0.420904 0.139058 0.909638
v 0.233311 0.139058 0.966543
v 0.038221 0.139058 0.985758
v -0.156870 0.139058 0.966543
v -0.344463 0.139058 0.909637
v -0.517350 0.139058 0.817227
v -0.668886 0.139058 0.692864
v -0.793249 0.139058 0.541328
v -0.885659 0.139058 0.368441
v -0.942564 0.139058 0.180847
v -0.961779 0.139058 -0.014243
v -0.942564 0.139058 -0.209333
v -0.885658 0.139058 -0.396927
v -0.793248 0.139058 -0.569813
v -0.668885 0.139058 -0.721350
v -0.517348 0.139058 -0.845712
v -0.344461 0.139058 -0.938122
v -0.156868 0.139058 -0.995028
v 0.316006 1.319684 -0.429977
v 0.453956 1.319684 0.263543
vt 0.406452 0.459485
vt 0.655759 0.445127
vt 0.632114 0.469616
vt 0.616231 0.457741
vt 0.372841 0.453055
vt 0.393855 0.430503
vt 0.399598 0.137002
vt 0.715071 0.104857
vt 0.686443 0.137245
vt 0.339152 0.121174
vt 0.631078 0.126794
vt 0.605873 0.153843
vt 0.458803 0.458803
vt 0.541197 0.541197
vt 0.458803 0.541197
vt 0.445649 0.400672
vt 0.570225 0.525249
vt 0.445649 0.525249
vt 0.588530 0.071597
vt 0.516589 0.821924
vt 0.559096 0.076525
vt 0.535456 0.070964
vt 0.511472 0.073846
vt 0.619398 0.072934
vt 0.647345 0.080480
vt 0.674318 0.079467
vt 0.712772 0.080314
vt 0.304848 0.066968
vt 0.516085 0.820962
vt 0.275779 0.073801
vt 0.334754 0.067336
vt 0.370675 0.069210
vt 0.399266 0.064703
vt 0.433634 0.064441
vt 0.471010 0.063165
vt 0.503332 0.066188
vt 0.538409 0.065587
vt 0.568177 0.066657
vt 0.597800 0.066746
vt 0.627150 0.068484
vt 0.645520 0.074490
vt 0.676598 0.071501
vt 0.701745 0.075348
vt 0.628104 0.445103
vt 0.718373 0.075022
vt 0.728493 0.084803
vt 0.308080 0.070904
vt 0.279941 0.073566
vt 0.335215 0.072216
vt 0.359100 0.071279
vt 0.387983 0.072361
vt 0.413307 0.071316
vt 0.437012 0.074488
vt 0.486629 0.449696
vt 0.461034 0.073507
vt 0.485210 0.074691
vt 0.010499 0.006300
vt 0.010499 0.006300
vt 0.010499 0.006300
vt 0.384472 0.437878
vt 0.641346 0.480726
vt 0.370506 0.110819
vt 0.309029 0.093605
vt 0.541197 0.458803
vt 0.570225 0.400672
vt 0.010499 0.006300
vt 0.010499 0.006300
vt 0.010499 0.006300
vt 0.010499 0.006300
vt 0.010499 0.006300
vt 0.010499 0.006300
vt 0.010499 0.006300
vt 0.010499 0.006300
vt 0.010499 0.006300
vt 0.010499 0.006300
vt 0.010499 0.006300
vt 0.010499 0.006300
vt 0.010499 0.006300
vt 0.010499 0.006300
vt 0.010499 0.006300
vt 0.010499 0.006300
vt 0.010499 0.006300
vt 0.010499 0.006300
vt 0.010499 0.006300
vt 0.010499 0.006300
vt 0.010499 0.006300
vt 0.010499 0.006300
vt 0.010499 0.006300
vt 0.010499 0.006300
vt 0.010499 0.006300
vt 0.010499 0.006300
vt 0.010499 0.006300
vt 0.010499 0.006300
vt 0.010499 0.006300
vn -1.0000 0.0000 0.0000
vn 0.0000 0.0000 -1.0000
vn 1.0000 0.0000 0.0000
vn 0.0000 0.0000 1.0000
vn 0.0000 -1.0000 0.0000
vn 0.0000 1.0000 0.0000
vn -0.2675 0.3884 -0.8818
vn 0.0903 0.3884 -0.9171
vn -0.4344 0.3884 -0.8127
vn -0.5846 0.3884 -0.7123
vn -0.7123 0.3884 -0.5846
vn -0.8127 0.3884 -0.4344
vn -0.8818 0.3884 -0.2675
vn -0.9171 0.3884 -0.0903
vn -0.9171 0.3884 0.0903
vn -0.8818 0.3884 0.2675
vn -0.8127 0.3884 0.4344
vn -0.7123 0.3884 0.5846
vn -0.5846 0.3884 0.7123
vn -0.4344 0.3884 0.8127
vn -0.2675 0.3884 0.8818
vn -0.0903 0.3884 0.9171
vn 0.0903 0.3884 0.9171
vn 0.2675 0.3884 0.8818
vn 0.4344 0.3884 0.8127
vn 0.5846 0.3884 0.7123
vn 0.7123 0.3884 0.5846
vn 0.8127 0.3884 0.4344
vn 0.8818 0.3884 0.2675
vn 0.9171 0.3884 0.0903
vn 0.9171 0.3884 -0.0903
vn 0.8818 0.3884 -0.2675
vn 0.8127 0.3884 -0.4344
vn 0.7123 0.3884 -0.5846
vn 0.5846 0.3884 -0.7123
vn 0.4344 0.3884 -0.8127
vn -0.0903 0.3884 -0.9171
vn 0.2675 0.3884 -0.8818
usemtl None
s off
f 4/1/1 1/2/1 2/3/1
f 8/4/2 3/5/2 4/6/2
f 6/7/3 7/8/3 8/9/3
f 2/10/4 5/11/4 6/12/4
f 3/13/5 5/14/5 1/15/5
f 8/16/6 2/17/6 6/18/6
f 40/19/7 10/20/7 41/21/7
f 9/22/8 10/20/8 11/23/8
f 39/24/9 10/20/9 40/19/9
f 38/25/10 10/20/10 39/24/10
f 37/26/11 10/20/11 38/25/11
f 36/27/12 10/20/12 37/26/12
f 35/28/13 10/29/13 36/30/13
f 34/31/14 10/29/14 35/28/14
f 33/32/15 10/29/15 34/31/15
f 32/33/16 10/29/16 33/32/16
f 31/34/17 10/29/17 32/33/17
f 30/35/18 10/29/18 31/34/18
f 29/36/19 10/29/19 30/35/19
f 28/37/20 10/29/20 29/36/20
f 27/38/21 10/29/21 28/37/21
f 26/39/22 10/29/22 27/38/22
f 25/40/23 10/29/23 26/39/23
f 24/41/24 10/29/24 25/40/24
f 23/42/25 10/29/25 24/41/25
f 22/43/26 10/29/26 23/42/26
f 43/44/27 22/43/27 21/45/27
f 20/46/28 43/44/28 21/45/28
f 19/47/29 10/20/29 20/48/29
f 18/49/30 10/20/30 19/47/30
f 17/50/31 10/20/31 18/49/31
f 16/51/32 10/20/32 17/50/32
f 15/52/33 10/20/33 16/51/33
f 14/53/34 10/20/34 15/52/34
f 42/54/35 14/53/35 13/55/35
f 12/56/36 42/54/36 13/55/36
f 41/21/37 10/20/37 9/22/37
f 11/23/38 10/20/38 12/56/38
f 25/57/5 33/58/5 17/59/5
f 4/1/1 3/60/1 1/2/1
f 8/4/2 7/61/2 3/5/2
f 6/7/3 5/62/3 7/8/3
f 2/10/4 1/63/4 5/11/4
f 3/13/5 7/64/5 5/14/5
f 8/16/6 4/65/6 2/17/6
f 43/44/27 10/29/27 22/43/27
f 20/46/28 10/29/28 43/44/28
f 42/54/35 10/20/35 14/53/35
f 12/56/36 10/20/36 42/54/36
f 41/66/5 9/67/5 11/68/5
f 11/68/5 12/69/5 13/70/5
f 13/70/5 14/71/5 15/72/5
f 15/72/5 16/73/5 13/70/5
f 17/59/5 18/74/5 19/75/5
f 19/75/5 20/76/5 21/77/5
f 21/77/5 22/78/5 23/79/5
f 23/79/5 24/80/5 25/57/5
f 25/57/5 26/81/5 27/82/5
f 27/82/5 28/83/5 25/57/5
f 29/84/5 30/85/5 31/86/5
f 31/86/5 32/87/5 29/84/5
f 33/58/5 34/88/5 35/89/5
f 35/89/5 36/90/5 37/91/5
f 37/91/5 38/92/5 39/93/5
f 39/93/5 40/94/5 41/66/5
f 41/66/5 11/68/5 17/59/5
f 13/70/5 16/73/5 17/59/5
f 17/59/5 19/75/5 21/77/5
f 21/77/5 23/79/5 17/59/5
f 25/57/5 28/83/5 29/84/5
f 29/84/5 32/87/5 33/58/5
f 33/58/5 35/89/5 41/66/5
f 37/91/5 39/93/5 41/66/5
f 11/68/5 13/70/5 17/59/5
f 17/59/5 23/79/5 25/57/5
f 25/57/5 29/84/5 33/58/5
f 35/89/5 37/91/5 41/66/5
f 41/66/5 17/59/5 33/58/5
