# Blender v2.78 (sub 0) OBJ File: ''
# www.blender.org
mtllib cilindro.mtl
o Cube.001
v 0.999999 -0.981385 -0.001348
v 0.003895 -0.981385 2.890176
v 0.000000 -0.981385 -0.000000
v 0.003896 0.981385 2.890176
v 0.999999 3.037868 -0.001346
v 0.000000 3.037868 0.000000
v -0.003895 3.037868 -2.890176
v 0.996104 0.000000 -2.891523
v -0.003895 0.000000 -2.890176
v 0.999999 0.000000 -0.001347
v 1.003895 0.981385 2.888829
v 1.003895 -0.000000 2.888829
v 0.003896 -0.000000 2.890176
v -0.996103 0.981385 2.891524
v -0.996104 -0.000000 2.891523
v -0.999999 -0.981385 0.001347
v -0.999999 -0.000000 0.001347
v -0.999999 3.037868 0.001347
v -1.003895 0.000000 -2.888829
v -1.003894 3.037868 -2.888829
v -1.003895 -0.981385 -2.888828
v -0.996104 -0.981385 2.891523
v 1.003895 -0.981385 2.888828
v 0.996103 -0.981385 -2.891524
v 0.996104 3.037868 -2.891521
v -0.003896 -0.981385 -2.890176
vn -0.0000 -1.0000 -0.0000
vn 0.0008 0.8148 0.5798
vn -0.0013 0.0000 -1.0000
vn 1.0000 0.0000 -0.0013
vn 0.0013 -0.0000 1.0000
vn -1.0000 -0.0000 0.0013
vn 0.0000 1.0000 0.0000
usemtl Material.001
s 1
f 1//1 2//1 3//1
f 4//2 5//2 6//2
f 7//3 8//3 9//3
f 10//4 11//4 12//4
f 13//5 14//5 15//5
f 16//6 15//6 17//6
f 17//6 14//6 18//6
f 19//6 18//6 20//6
f 21//6 17//6 19//6
f 2//5 15//5 22//5
f 12//5 2//5 23//5
f 11//5 13//5 12//5
f 10//4 23//4 1//4
f 8//4 1//4 24//4
f 25//4 10//4 8//4
f 9//3 24//3 26//3
f 19//3 26//3 21//3
f 19//3 7//3 9//3
f 6//7 25//7 7//7
f 18//7 7//7 20//7
f 14//2 6//2 18//2
f 3//1 22//1 16//1
f 26//1 16//1 21//1
f 26//1 1//1 3//1
f 1//1 23//1 2//1
f 4//2 11//2 5//2
f 7//3 25//3 8//3
f 10//4 5//4 11//4
f 13//5 4//5 14//5
f 16//6 22//6 15//6
f 17//6 15//6 14//6
f 19//6 17//6 18//6
f 21//6 16//6 17//6
f 2//5 13//5 15//5
f 12//5 13//5 2//5
f 11//5 4//5 13//5
f 10//4 12//4 23//4
f 8//4 10//4 1//4
f 25//4 5//4 10//4
f 9//3 8//3 24//3
f 19//3 9//3 26//3
f 19//3 20//3 7//3
f 6//7 5//7 25//7
f 18//7 6//7 7//7
f 14//2 4//2 6//2
f 3//1 2//1 22//1
f 26//1 3//1 16//1
f 26//1 24//1 1//1
