# Blender v2.78 (sub 0) OBJ File: ''
# www.blender.org
mtllib floor.mtl
o Cube
v 85.530853 0.108056 -57.639732
v 85.530853 0.108056 57.639736
v -85.530861 0.108056 57.639725
v -85.530823 0.108056 -57.639755
v 85.530891 -0.108056 -57.639706
v 85.530800 -0.108056 57.639771
v -85.530884 -0.108056 57.639717
v -85.530846 -0.108056 -57.639736
vn 0.0000 -1.0000 0.0000
vn 0.0000 1.0000 0.0000
vn -1.0000 -0.0002 0.0000
vn 0.0000 -0.0002 -1.0000
vn 1.0000 -0.0002 0.0000
vn -0.0000 0.0001 1.0000
vn -1.0000 0.0002 -0.0000
vn 0.0000 0.0000 -1.0000
vn 1.0000 -0.0001 0.0000
usemtl Material
s off
f 2//1 4//1 1//1
f 8//2 6//2 5//2
f 5//3 2//3 1//3
f 6//4 3//4 2//4
f 3//5 8//5 4//5
f 1//6 8//6 5//6
f 2//1 3//1 4//1
f 8//2 7//2 6//2
f 5//7 6//7 2//7
f 6//8 7//8 3//8
f 3//9 7//9 8//9
f 1//6 4//6 8//6
