# Blender v2.78 (sub 0) OBJ File: ''
# www.blender.org
mtllib wheel.mtl
o W3
v -0.500000 0.218453 -0.708206
v -0.400001 0.294756 -0.955572
v -0.500000 0.417496 -0.612352
v -0.400001 0.563321 -0.826238
v -0.500000 0.579441 -0.462088
v -0.400001 0.781832 -0.623489
v -0.500000 0.689901 -0.270766
v -0.400001 0.930874 -0.365341
v -0.500000 0.739060 -0.055385
v -0.400001 0.997204 -0.074730
v -0.500000 0.722551 0.164917
v -0.400001 0.974928 0.222521
v -0.500000 0.641840 0.370566
v -0.400001 0.866025 0.500000
v -0.500000 0.504098 0.543289
v -0.400001 0.680173 0.733052
v -0.500000 0.321566 0.667737
v -0.400001 0.433884 0.900969
v -0.500000 0.110460 0.732855
v -0.400001 0.149043 0.988831
v -0.400001 -0.149042 0.988831
v -0.500000 -0.110460 0.732855
v -0.500000 -0.321565 0.667738
v -0.400001 -0.433884 0.900969
v -0.500000 -0.504098 0.543289
v -0.400001 -0.680173 0.733052
v -0.500000 -0.641840 0.370567
v -0.400001 -0.866025 0.500000
v -0.500000 -0.722551 0.164918
v -0.400001 -0.974928 0.222521
v -0.500000 -0.739060 -0.055385
v -0.400001 -0.997204 -0.074730
v -0.500000 -0.689901 -0.270766
v -0.400001 -0.930874 -0.365341
v -0.500000 -0.579441 -0.462089
v -0.400001 -0.781832 -0.623490
v -0.500000 -0.417495 -0.612353
v -0.400001 -0.563320 -0.826239
v -0.500000 -0.218453 -0.708206
v -0.400001 -0.294755 -0.955573
v -0.400001 0.000000 -1.000000
v -0.500000 0.000000 -0.741133
v 0.500000 0.211732 -0.686414
v 0.397811 0.294756 -0.955572
v 0.397812 0.563321 -0.826238
v 0.500000 0.404649 -0.593509
v 0.500000 0.561611 -0.447869
v 0.397812 0.781832 -0.623489
v 0.397812 0.930874 -0.365341
v 0.500000 0.668672 -0.262434
v 0.500000 0.716319 -0.053680
v 0.397812 0.997204 -0.074730
v 0.397812 0.974928 0.222521
v 0.500000 0.700317 0.159843
v 0.397812 0.866025 0.500000
v 0.500000 0.622090 0.359164
v 0.500000 0.488587 0.526571
v 0.397812 0.680173 0.733052
v 0.500000 0.311671 0.647190
v 0.397812 0.433884 0.900969
v 0.397811 0.149042 0.988831
v 0.500000 0.107061 0.710304
v 0.500000 -0.107061 0.710304
v 0.397811 -0.149042 0.988831
v 0.397811 -0.433884 0.900969
v 0.500000 -0.311671 0.647191
v 0.500000 -0.488587 0.526571
v 0.397811 -0.680173 0.733052
v 0.397811 -0.866025 0.500000
v 0.500000 -0.622090 0.359164
v 0.397811 -0.974928 0.222521
v 0.500000 -0.700317 0.159843
v 0.500000 -0.716319 -0.053680
v 0.397811 -0.997204 -0.074730
v 0.500000 -0.668672 -0.262434
v 0.397811 -0.930874 -0.365341
v 0.500000 -0.561611 -0.447870
v 0.397811 -0.781832 -0.623490
v 0.500000 -0.404648 -0.593510
v 0.397811 -0.563320 -0.826239
v 0.500000 -0.211731 -0.686414
v 0.397811 -0.294755 -0.955573
v 0.500000 -0.000000 -0.718327
v 0.397811 -0.000000 -1.000000
vt 0.4200 -0.5539
vt 0.9958 -0.7844
vt 0.9958 -0.5539
vt 0.4200 -0.3336
vt 0.9958 -0.3336
vt 0.4200 -0.1431
vt 0.9958 -0.1431
vt 0.4200 0.0007
vt 0.9958 0.0007
vt 0.4140 0.1896
vt 1.0002 0.0122
vt 1.0002 0.1896
vt 0.4140 0.3947
vt 1.0002 0.3947
vt 0.4140 0.6094
vt 1.0002 0.6094
vt 0.4140 0.8146
vt 1.0002 0.8146
vt 0.4140 0.9920
vt 1.0002 0.9920
vt -0.5818 0.6537
vt -0.0028 0.4664
vt -0.0028 0.6537
vt 0.4200 -0.7844
vt 0.9958 -1.0047
vt 0.8409 -1.2806
vt 0.9960 -0.8695
vt 0.4247 -0.8695
vt 0.9960 -0.1937
vt 0.4247 -0.0019
vt 0.4247 -0.1937
vt -0.5818 0.4664
vt -0.0028 0.2875
vt -0.5818 0.2875
vt -0.0028 0.1327
vt 0.9960 -0.4156
vt 0.4247 -0.4156
vt 0.9960 -0.6477
vt 0.4247 -0.6477
vt -0.5818 0.9873
vt -0.0028 0.8326
vt -0.0028 0.9873
vt -0.5818 0.8326
vt -0.5818 0.1327
vt -0.0028 0.0160
vt 0.1285 -0.0297
vt 0.1110 -0.1009
vt 0.1455 -0.0785
vt 0.3266 -0.3562
vt 0.2612 -0.3485
vt 0.2846 -0.3939
vt 0.0819 -0.3768
vt 0.0839 -0.3030
vt 0.0453 -0.3325
vt 0.0453 -0.1042
vt 0.0819 -0.0599
vt 0.1844 -0.0685
vt 0.1809 -0.0162
vt 0.0139 -0.2184
vt 0.0666 -0.1741
vt 0.0220 -0.1586
vt 0.2241 -0.0719
vt 0.2345 -0.0207
vt 0.1455 -0.3582
vt 0.1110 -0.3358
vt 0.1809 -0.4205
vt 0.2241 -0.3648
vt 0.1844 -0.3682
vt 0.0220 -0.2781
vt 0.0606 -0.2184
vt 0.2612 -0.0883
vt 0.2846 -0.0428
vt 0.2345 -0.4160
vt 0.1285 -0.4070
vt 0.0839 -0.1337
vt 0.0666 -0.2626
vt 0.3569 -0.3063
vt 0.2924 -0.3205
vt 0.3728 -0.2486
vt 0.3148 -0.2835
vt 0.3266 -0.1960
vt 0.3266 -0.2407
vt 0.3569 -0.1304
vt 0.3728 -0.1881
vt 0.2924 -0.1162
vt 0.3148 -0.1532
vt 0.3266 -0.0805
vt 0.0660 0.8233
vt 0.2587 0.6507
vt 0.1442 0.9178
vt 0.0215 0.7233
vt 0.0649 0.7839
vt 0.0134 0.7839
vt 0.0823 0.6232
vt 0.0878 0.7007
vt 0.0452 0.6681
vt 0.3772 0.8145
vt 0.3263 0.7619
vt 0.3772 0.7532
vt 0.3611 0.8730
vt 0.3263 0.8059
vt 0.2370 0.5835
vt 0.2620 0.6560
vt 0.2256 0.6399
vt 0.1865 0.6367
vt 0.1827 0.5789
vt 0.1295 0.5926
vt 0.1144 0.6685
vt 0.3611 0.6947
vt 0.2927 0.6835
vt 0.3304 0.6441
vt 0.0708 0.7404
vt 0.1483 0.6465
vt 0.2878 0.6059
vt 0.3147 0.7198
vt 0.0215 0.8444
vt 0.0878 0.8670
vt 0.0452 0.8996
vt 0.0708 0.8274
vt 0.1144 0.8993
vt 0.0823 0.9445
vt 0.1295 0.9752
vt 0.1483 0.9213
vt 0.1827 0.9888
vt 0.1865 0.9311
vt 0.2256 0.9278
vt 0.2370 0.9842
vt 0.2620 0.9117
vt 0.2878 0.9618
vt 0.2927 0.8843
vt 0.3304 0.9237
vt 0.3147 0.8479
vt 0.2904 -0.3227
vt 0.1847 -0.0763
vt 0.1847 -0.3693
vt 0.4140 0.0122
vt 0.4200 -1.0047
vt 0.9960 -0.0019
vt -0.5818 0.0160
vt 0.1100 0.8957
vt 0.0832 0.8632
vt 0.0602 0.7794
vt 0.1100 0.6632
vt 0.0660 0.7356
vt 0.0832 0.6957
vt 0.1442 0.6410
vt 0.1826 0.6311
vt 0.2220 0.6345
vt 0.2895 0.6783
vt 0.3234 0.8016
vt 0.3118 0.7149
vt 0.3234 0.7573
vt 0.3118 0.8439
vt 0.2895 0.8806
vt 0.2587 0.9082
vt 0.2220 0.9244
vt 0.1826 0.9277
vt 0.2236 -0.3660
vt 0.2599 -0.3500
vt 0.3123 -0.2865
vt 0.3238 -0.2447
vt 0.3238 -0.2009
vt 0.3123 -0.1590
vt 0.2904 -0.1229
vt 0.2599 -0.0956
vt 0.2236 -0.0796
vt 0.1467 -0.0860
vt 0.1129 -0.1079
vt 0.0864 -0.1400
vt 0.0695 -0.1795
vt 0.0637 -0.2228
vt 0.0695 -0.2661
vt 0.0864 -0.3056
vt 0.1129 -0.3377
vt 0.1467 -0.3596
vn 0.0000 -0.5633 0.8262
vn 0.0000 -0.7818 0.6235
vn 0.0000 -0.9309 0.3653
vn 0.0000 -0.9972 0.0747
vn 0.0000 -0.9749 -0.2225
vn 0.0000 -0.8660 -0.5000
vn 0.0000 -0.6802 -0.7331
vn 0.0000 -0.4339 -0.9010
vn 0.0000 -0.1490 -0.9888
vn 0.0000 0.8660 -0.5000
vn 0.0000 -0.2948 0.9556
vn -0.0000 0.0000 1.0000
vn 0.0000 0.9309 0.3653
vn 0.0000 0.6802 -0.7331
vn 0.0000 0.4339 -0.9010
vn 0.0000 0.7818 0.6235
vn 0.0000 0.5633 0.8262
vn 0.0000 0.9972 0.0747
vn 0.0000 0.9749 -0.2225
vn 0.0000 0.1490 -0.9888
vn 0.0000 0.2948 0.9556
vn -0.9314 -0.1073 0.3477
vn -0.9314 0.0542 -0.3598
vn -0.9314 0.3629 0.0272
vn -0.9314 0.0000 0.3639
vn -0.9314 -0.2050 0.3007
vn -0.9314 0.2050 0.3007
vn -0.9314 -0.2845 0.2269
vn -0.9314 0.3548 -0.0810
vn -0.9314 0.2475 -0.2667
vn -0.9314 0.2845 0.2269
vn -0.9314 -0.3387 0.1329
vn -0.9314 0.1579 -0.3278
vn -0.9314 0.3151 -0.1819
vn -0.9314 0.1073 0.3477
vn -0.9314 0.3387 0.1329
vn -0.9314 -0.0542 -0.3598
vn -0.9314 -0.1579 -0.3278
vn -0.9314 -0.2475 -0.2667
vn -0.9314 -0.3151 -0.1819
vn -0.9314 -0.3548 -0.0810
vn -0.9314 -0.3629 0.0272
vn -1.0000 -0.0000 0.0000
vn 0.9388 0.2983 -0.1722
vn 0.9388 0.3435 0.0257
vn 0.9388 -0.2693 0.2148
vn 0.9388 -0.3206 0.1258
vn 0.9388 0.1015 0.3291
vn 0.9388 0.1940 0.2846
vn 0.9388 0.3206 0.1258
vn 0.9388 -0.1015 0.3291
vn 0.9388 0.3358 -0.0766
vn 0.9388 0.2693 0.2148
vn 0.9388 0.0000 0.3444
vn 0.9388 -0.1940 0.2846
vn 0.9388 0.1494 -0.3103
vn 0.9388 0.2343 -0.2525
vn 0.9388 0.0513 -0.3406
vn 0.9388 -0.0513 -0.3406
vn 0.9388 -0.1494 -0.3103
vn 0.9388 -0.2343 -0.2525
vn 0.9388 -0.2983 -0.1722
vn 0.9388 -0.3358 -0.0766
vn 0.9388 -0.3435 0.0257
vn 1.0000 0.0000 -0.0000
vn -0.9314 -0.2050 0.3006
vn -0.9314 0.2050 0.3006
usemtl 94deb98b.dds
s off
f 68/1/1 24/2/1 26/3/1
f 69/4/2 26/3/2 28/5/2
f 71/6/3 28/5/3 30/7/3
f 74/8/4 30/7/4 32/9/4
f 76/10/5 32/11/5 34/12/5
f 78/13/6 34/12/6 36/14/6
f 80/15/7 36/14/7 38/16/7
f 82/17/8 38/16/8 40/18/8
f 84/19/9 40/18/9 41/20/9
f 49/21/10 6/22/10 8/23/10
f 65/24/11 21/25/11 24/2/11
f 21/26/12 61/27/12 20/28/12
f 55/29/13 12/30/13 14/31/13
f 48/32/14 4/33/14 6/22/14
f 45/34/15 2/35/15 4/33/15
f 58/36/16 14/31/16 16/37/16
f 60/38/17 16/37/17 18/39/17
f 53/40/18 10/41/18 12/42/18
f 52/43/19 8/23/19 10/41/19
f 44/44/20 41/45/20 2/35/20
f 61/27/21 18/39/21 20/28/21
f 24/46/22 22/47/22 23/48/22
f 41/49/23 1/50/23 2/51/23
f 10/52/24 11/53/24 12/54/24
f 20/55/25 22/47/25 21/56/25
f 24/46/26 25/57/26 26/58/26
f 16/59/27 17/60/27 18/61/27
f 26/58/28 27/62/28 28/63/28
f 10/52/29 7/64/29 9/65/29
f 6/66/30 3/67/30 5/68/30
f 14/69/31 15/70/31 16/59/31
f 28/63/32 29/71/32 30/72/32
f 4/73/33 1/50/33 3/67/33
f 6/66/34 7/64/34 8/74/34
f 18/61/35 19/75/35 20/55/35
f 12/54/36 13/76/36 14/69/36
f 40/77/37 42/78/37 41/49/37
f 38/79/38 39/80/38 40/77/38
f 38/79/39 35/81/39 37/82/39
f 34/83/40 35/81/40 36/84/40
f 34/83/41 31/85/41 33/86/41
f 30/72/42 31/85/42 32/87/42
f 17/88/43 1/89/43 23/90/43
f 49/91/44 47/92/44 48/93/44
f 53/94/45 51/95/45 52/96/45
f 69/97/46 67/98/46 68/99/46
f 71/100/47 70/101/47 69/97/47
f 60/102/48 62/103/48 59/104/48
f 60/102/49 57/105/49 58/106/49
f 55/107/50 54/108/50 53/94/50
f 65/109/51 63/110/51 64/111/51
f 52/96/52 50/112/52 49/91/52
f 55/107/53 57/105/53 56/113/53
f 64/111/54 62/103/54 61/114/54
f 68/99/55 66/115/55 65/109/55
f 45/116/56 43/117/56 44/118/56
f 45/116/57 47/92/57 46/119/57
f 44/118/58 83/120/58 84/121/58
f 82/122/59 83/120/59 81/123/59
f 80/124/60 81/123/60 79/125/60
f 80/124/61 77/126/61 78/127/61
f 78/127/62 75/128/62 76/129/62
f 76/129/63 73/130/63 74/131/63
f 71/100/64 73/130/64 72/132/64
f 63/133/65 79/134/65 57/135/65
f 68/1/1 65/24/1 24/2/1
f 69/4/2 68/1/2 26/3/2
f 71/6/3 69/4/3 28/5/3
f 74/8/4 71/6/4 30/7/4
f 76/10/5 74/136/5 32/11/5
f 78/13/6 76/10/6 34/12/6
f 80/15/7 78/13/7 36/14/7
f 82/17/8 80/15/8 38/16/8
f 84/19/9 82/17/9 40/18/9
f 49/21/10 48/32/10 6/22/10
f 65/24/11 64/137/11 21/25/11
f 21/26/12 64/137/12 61/27/12
f 55/29/13 53/138/13 12/30/13
f 48/32/14 45/34/14 4/33/14
f 45/34/15 44/44/15 2/35/15
f 58/36/16 55/29/16 14/31/16
f 60/38/17 58/36/17 16/37/17
f 53/40/18 52/43/18 10/41/18
f 52/43/19 49/21/19 8/23/19
f 44/44/20 84/139/20 41/45/20
f 61/27/21 60/38/21 18/39/21
f 24/46/22 21/56/22 22/47/22
f 41/49/23 42/78/23 1/50/23
f 10/52/24 9/65/24 11/53/24
f 20/55/25 19/75/25 22/47/25
f 24/46/66 23/48/66 25/57/66
f 16/59/67 15/70/67 17/60/67
f 26/58/28 25/57/28 27/62/28
f 10/52/29 8/74/29 7/64/29
f 6/66/30 4/73/30 3/67/30
f 14/69/31 13/76/31 15/70/31
f 28/63/32 27/62/32 29/71/32
f 4/73/33 2/51/33 1/50/33
f 6/66/34 5/68/34 7/64/34
f 18/61/35 17/60/35 19/75/35
f 12/54/36 11/53/36 13/76/36
f 40/77/37 39/80/37 42/78/37
f 38/79/38 37/82/38 39/80/38
f 38/79/39 36/84/39 35/81/39
f 34/83/40 33/86/40 35/81/40
f 34/83/41 32/87/41 31/85/41
f 30/72/42 29/71/42 31/85/42
f 22/140/43 19/141/43 23/90/43
f 17/88/43 15/142/43 9/143/43
f 13/144/43 11/145/43 9/143/43
f 9/143/43 7/146/43 5/147/43
f 5/147/43 3/148/43 1/89/43
f 1/89/43 42/149/43 35/150/43
f 39/151/43 37/152/43 35/150/43
f 35/150/43 33/153/43 31/154/43
f 31/154/43 29/155/43 27/156/43
f 27/156/43 25/157/43 23/90/43
f 23/90/43 19/141/43 17/88/43
f 15/142/43 13/144/43 9/143/43
f 9/143/43 5/147/43 17/88/43
f 42/149/43 39/151/43 35/150/43
f 35/150/43 31/154/43 1/89/43
f 27/156/43 23/90/43 1/89/43
f 17/88/43 5/147/43 1/89/43
f 1/89/43 31/154/43 27/156/43
f 49/91/44 50/112/44 47/92/44
f 53/94/45 54/108/45 51/95/45
f 69/97/46 70/101/46 67/98/46
f 71/100/47 72/132/47 70/101/47
f 60/102/48 61/114/48 62/103/48
f 60/102/49 59/104/49 57/105/49
f 55/107/50 56/113/50 54/108/50
f 65/109/51 66/115/51 63/110/51
f 52/96/52 51/95/52 50/112/52
f 55/107/53 58/106/53 57/105/53
f 64/111/54 63/110/54 62/103/54
f 68/99/55 67/98/55 66/115/55
f 45/116/56 46/119/56 43/117/56
f 45/116/57 48/93/57 47/92/57
f 44/118/58 43/117/58 83/120/58
f 82/122/59 84/121/59 83/120/59
f 80/124/60 82/122/60 81/123/60
f 80/124/61 79/125/61 77/126/61
f 78/127/62 77/126/62 75/128/62
f 76/129/63 75/128/63 73/130/63
f 71/100/64 74/131/64 73/130/64
f 59/158/65 62/159/65 63/133/65
f 63/133/65 66/160/65 67/161/65
f 67/161/65 70/162/65 63/133/65
f 72/163/65 73/164/65 75/165/65
f 75/165/65 77/166/65 79/134/65
f 79/134/65 81/167/65 83/168/65
f 83/168/65 43/169/65 46/170/65
f 46/170/65 47/171/65 50/172/65
f 50/172/65 51/173/65 54/174/65
f 54/174/65 56/175/65 57/135/65
f 57/135/65 59/158/65 63/133/65
f 63/133/65 70/162/65 72/163/65
f 72/163/65 75/165/65 63/133/65
f 79/134/65 83/168/65 46/170/65
f 46/170/65 50/172/65 79/134/65
f 54/174/65 57/135/65 79/134/65
f 63/133/65 75/165/65 79/134/65
f 79/134/65 50/172/65 54/174/65
