# Blender v2.79 (sub 0) OBJ File: 'rueda.blend'
# www.blender.org
mtllib rueda.mtl
o Cylinder
v 0.000000 -1.000000 -1.000000
v 0.000000 -0.451294 -1.000000
v 0.195090 -1.000000 -0.980785
v 0.195090 -0.451294 -0.980785
v 0.382683 -1.000000 -0.923880
v 0.382683 -0.451294 -0.923880
v 0.555570 -1.000000 -0.831470
v 0.555570 -0.451294 -0.831470
v 0.707107 -1.000000 -0.707107
v 0.707107 -0.451294 -0.707107
v 0.831470 -1.000000 -0.555570
v 0.831470 -0.451294 -0.555570
v 0.923880 -1.000000 -0.382683
v 0.923880 -0.451294 -0.382683
v 0.980785 -1.000000 -0.195090
v 0.980785 -0.451294 -0.195090
v 1.000000 -1.000000 -0.000000
v 1.000000 -0.451294 -0.000000
v 0.980785 -1.000000 0.195090
v 0.980785 -0.451294 0.195090
v 0.923880 -1.000000 0.382683
v 0.923880 -0.451294 0.382683
v 0.831470 -1.000000 0.555570
v 0.831470 -0.451294 0.555570
v 0.707107 -1.000000 0.707107
v 0.707107 -0.451294 0.707107
v 0.555570 -1.000000 0.831470
v 0.555570 -0.451294 0.831470
v 0.382683 -1.000000 0.923880
v 0.382683 -0.451294 0.923880
v 0.195090 -1.000000 0.980785
v 0.195090 -0.451294 0.980785
v -0.000000 -1.000000 1.000000
v -0.000000 -0.451294 1.000000
v -0.195091 -1.000000 0.980785
v -0.195091 -0.451294 0.980785
v -0.382684 -1.000000 0.923879
v -0.382684 -0.451294 0.923879
v -0.555571 -1.000000 0.831469
v -0.555571 -0.451294 0.831469
v -0.707107 -1.000000 0.707106
v -0.707107 -0.451294 0.707106
v -0.831470 -1.000000 0.555570
v -0.831470 -0.451294 0.555570
v -0.923880 -1.000000 0.382683
v -0.923880 -0.451294 0.382683
v -0.980785 -1.000000 0.195089
v -0.980785 -0.451294 0.195089
v -1.000000 -1.000000 -0.000001
v -1.000000 -0.451294 -0.000001
v -0.980785 -1.000000 -0.195091
v -0.980785 -0.451294 -0.195091
v -0.923879 -1.000000 -0.382684
v -0.923879 -0.451294 -0.382684
v -0.831469 -1.000000 -0.555571
v -0.831469 -0.451294 -0.555571
v -0.707106 -1.000000 -0.707108
v -0.707106 -0.451294 -0.707108
v -0.555569 -1.000000 -0.831470
v -0.555569 -0.451294 -0.831470
v -0.382682 -1.000000 -0.923880
v -0.382682 -0.451294 -0.923880
v -0.195089 -1.000000 -0.980786
v -0.195089 -0.451294 -0.980786
vt 0.376020 0.472450
vt 0.424529 0.446887
vt 0.424529 0.472450
vt 0.376020 0.446887
vt 0.424529 0.421324
vt 0.376020 0.421324
vt 0.424529 0.395761
vt 0.376020 0.395761
vt 0.424529 0.370198
vt 0.376020 0.370198
vt 0.424529 0.344635
vt 0.376020 0.344635
vt 0.424529 0.319071
vt 0.376020 0.319072
vt 0.424529 0.293508
vt 0.376020 0.293508
vt 0.424529 0.267945
vt 0.376020 0.267945
vt 0.424529 0.242382
vt 0.376020 0.242382
vt 0.424529 0.216819
vt 0.376020 0.216819
vt 0.424529 0.191256
vt 0.376020 0.191256
vt 0.424529 0.165693
vt 0.376020 0.165693
vt 0.424529 0.140130
vt 0.376020 0.958150
vt 0.424529 0.932587
vt 0.424529 0.958150
vt 0.376020 0.932586
vt 0.424529 0.907023
vt 0.376020 0.907023
vt 0.424529 0.881460
vt 0.376020 0.881460
vt 0.424529 0.855897
vt 0.376020 0.855897
vt 0.424529 0.830334
vt 0.376020 0.830334
vt 0.424529 0.804771
vt 0.376020 0.804771
vt 0.424529 0.779208
vt 0.376020 0.779208
vt 0.424529 0.753644
vt 0.376020 0.753644
vt 0.424529 0.728081
vt 0.376020 0.728081
vt 0.424529 0.702518
vt 0.376020 0.702518
vt 0.424529 0.676955
vt 0.376020 0.676955
vt 0.424529 0.651392
vt 0.376020 0.651392
vt 0.424529 0.625829
vt 0.376020 0.625829
vt 0.424529 0.600266
vt 0.376020 0.600266
vt 0.424529 0.574703
vt 0.376020 0.574703
vt 0.424529 0.549139
vt 0.376020 0.549139
vt 0.424529 0.523576
vt 0.248612 0.516662
vt 0.199813 0.464581
vt 0.190578 0.134661
vt 0.376020 0.498013
vt 0.424529 0.498013
vt 0.376020 0.523576
vt 0.291227 0.428370
vt 0.200567 0.459786
vt 0.282297 0.109403
vt 0.376020 0.140130
vt 0.199813 0.102167
vt 0.210673 0.076637
vt 0.222740 0.059051
vt 0.235550 0.050086
vt 0.248611 0.050086
vt 0.261422 0.059051
vt 0.273489 0.076637
vt 0.284349 0.102168
vt 0.293585 0.134662
vt 0.300841 0.172871
vt 0.305839 0.215327
vt 0.308387 0.260397
vt 0.308387 0.306351
vt 0.293584 0.432087
vt 0.305839 0.351422
vt 0.300841 0.393878
vt 0.284349 0.464581
vt 0.273489 0.490112
vt 0.261422 0.507697
vt 0.235550 0.516662
vt 0.222740 0.507697
vt 0.210673 0.490111
vt 0.190578 0.432087
vt 0.183321 0.393878
vt 0.178323 0.351422
vt 0.175775 0.306351
vt 0.175775 0.260397
vt 0.178323 0.215326
vt 0.183321 0.172870
vt 0.191638 0.140820
vt 0.200567 0.109404
vt 0.211067 0.084721
vt 0.222733 0.067719
vt 0.235118 0.059051
vt 0.247746 0.059051
vt 0.260131 0.067718
vt 0.271798 0.084720
vt 0.291226 0.140818
vt 0.298242 0.177759
vt 0.303074 0.218806
vt 0.305538 0.262380
vt 0.305538 0.306809
vt 0.303074 0.350383
vt 0.298242 0.391429
vt 0.282297 0.459786
vt 0.271798 0.484470
vt 0.260131 0.501472
vt 0.247746 0.510139
vt 0.235118 0.510139
vt 0.222733 0.501471
vt 0.211067 0.484469
vt 0.191638 0.428370
vt 0.184623 0.391429
vt 0.179790 0.350383
vt 0.177327 0.306809
vt 0.177327 0.262381
vt 0.179791 0.218807
vt 0.184623 0.177760
vn 0.0980 0.0000 -0.9952
vn 0.2903 0.0000 -0.9569
vn 0.4714 0.0000 -0.8819
vn 0.6344 0.0000 -0.7730
vn 0.7730 0.0000 -0.6344
vn 0.8819 0.0000 -0.4714
vn 0.9569 0.0000 -0.2903
vn 0.9952 0.0000 -0.0980
vn 0.9952 0.0000 0.0980
vn 0.9569 0.0000 0.2903
vn 0.8819 0.0000 0.4714
vn 0.7730 0.0000 0.6344
vn 0.6344 0.0000 0.7730
vn 0.4714 0.0000 0.8819
vn 0.2903 0.0000 0.9569
vn 0.0980 0.0000 0.9952
vn -0.0980 0.0000 0.9952
vn -0.2903 0.0000 0.9569
vn -0.4714 0.0000 0.8819
vn -0.6344 0.0000 0.7730
vn -0.7730 0.0000 0.6344
vn -0.8819 0.0000 0.4714
vn -0.9569 0.0000 0.2903
vn -0.9952 0.0000 0.0980
vn -0.9952 0.0000 -0.0980
vn -0.9569 0.0000 -0.2903
vn -0.8819 0.0000 -0.4714
vn -0.7730 0.0000 -0.6344
vn -0.6344 0.0000 -0.7730
vn -0.4714 0.0000 -0.8819
vn 0.0000 1.0000 0.0000
vn -0.0980 0.0000 -0.9952
vn -0.2903 0.0000 -0.9569
vn 0.0000 -1.0000 0.0000
usemtl None
s off
f 2/1/1 3/2/1 1/3/1
f 4/4/2 5/5/2 3/2/2
f 6/6/3 7/7/3 5/5/3
f 8/8/4 9/9/4 7/7/4
f 10/10/5 11/11/5 9/9/5
f 12/12/6 13/13/6 11/11/6
f 14/14/7 15/15/7 13/13/7
f 16/16/8 17/17/8 15/15/8
f 18/18/9 19/19/9 17/17/9
f 20/20/10 21/21/10 19/19/10
f 22/22/11 23/23/11 21/21/11
f 24/24/12 25/25/12 23/23/12
f 26/26/13 27/27/13 25/25/13
f 28/28/14 29/29/14 27/30/14
f 30/31/15 31/32/15 29/29/15
f 32/33/16 33/34/16 31/32/16
f 34/35/17 35/36/17 33/34/17
f 36/37/18 37/38/18 35/36/18
f 38/39/19 39/40/19 37/38/19
f 40/41/20 41/42/20 39/40/20
f 42/43/21 43/44/21 41/42/21
f 44/45/22 45/46/22 43/44/22
f 46/47/23 47/48/23 45/46/23
f 48/49/24 49/50/24 47/48/24
f 50/51/25 51/52/25 49/50/25
f 52/53/26 53/54/26 51/52/26
f 54/55/27 55/56/27 53/54/27
f 56/57/28 57/58/28 55/56/28
f 58/59/29 59/60/29 57/58/29
f 60/61/30 61/62/30 59/60/30
f 30/63/31 22/64/31 6/65/31
f 64/66/32 1/3/32 63/67/32
f 62/68/33 63/67/33 61/62/33
f 31/69/34 47/70/34 15/71/34
f 2/1/1 4/4/1 3/2/1
f 4/4/2 6/6/2 5/5/2
f 6/6/3 8/8/3 7/7/3
f 8/8/4 10/10/4 9/9/4
f 10/10/5 12/12/5 11/11/5
f 12/12/6 14/14/6 13/13/6
f 14/14/7 16/16/7 15/15/7
f 16/16/8 18/18/8 17/17/8
f 18/18/9 20/20/9 19/19/9
f 20/20/10 22/22/10 21/21/10
f 22/22/11 24/24/11 23/23/11
f 24/24/12 26/26/12 25/25/12
f 26/26/13 28/72/13 27/27/13
f 28/28/14 30/31/14 29/29/14
f 30/31/15 32/33/15 31/32/15
f 32/33/16 34/35/16 33/34/16
f 34/35/17 36/37/17 35/36/17
f 36/37/18 38/39/18 37/38/18
f 38/39/19 40/41/19 39/40/19
f 40/41/20 42/43/20 41/42/20
f 42/43/21 44/45/21 43/44/21
f 44/45/22 46/47/22 45/46/22
f 46/47/23 48/49/23 47/48/23
f 48/49/24 50/51/24 49/50/24
f 50/51/25 52/53/25 51/52/25
f 52/53/26 54/55/26 53/54/26
f 54/55/27 56/57/27 55/56/27
f 56/57/28 58/59/28 57/58/28
f 58/59/29 60/61/29 59/60/29
f 60/61/30 62/68/30 61/62/30
f 6/65/31 4/73/31 2/74/31
f 2/74/31 64/75/31 6/65/31
f 62/76/31 60/77/31 58/78/31
f 58/78/31 56/79/31 54/80/31
f 54/80/31 52/81/31 50/82/31
f 50/82/31 48/83/31 46/84/31
f 46/84/31 44/85/31 38/86/31
f 42/87/31 40/88/31 38/86/31
f 38/86/31 36/89/31 34/90/31
f 34/90/31 32/91/31 38/86/31
f 30/63/31 28/92/31 22/64/31
f 26/93/31 24/94/31 22/64/31
f 22/64/31 20/95/31 18/96/31
f 18/96/31 16/97/31 14/98/31
f 14/98/31 12/99/31 10/100/31
f 10/100/31 8/101/31 6/65/31
f 6/65/31 64/75/31 62/76/31
f 62/76/31 58/78/31 54/80/31
f 54/80/31 50/82/31 38/86/31
f 44/85/31 42/87/31 38/86/31
f 38/86/31 32/91/31 30/63/31
f 28/92/31 26/93/31 22/64/31
f 22/64/31 18/96/31 14/98/31
f 14/98/31 10/100/31 22/64/31
f 6/65/31 62/76/31 54/80/31
f 50/82/31 46/84/31 38/86/31
f 38/86/31 30/63/31 6/65/31
f 22/64/31 10/100/31 6/65/31
f 6/65/31 54/80/31 38/86/31
f 64/66/32 2/1/32 1/3/32
f 62/68/33 64/66/33 63/67/33
f 63/102/34 1/103/34 3/104/34
f 3/104/34 5/105/34 7/106/34
f 7/106/34 9/107/34 11/108/34
f 11/108/34 13/109/34 7/106/34
f 15/71/34 17/110/34 19/111/34
f 19/111/34 21/112/34 15/71/34
f 23/113/34 25/114/34 31/69/34
f 27/115/34 29/116/34 31/69/34
f 31/69/34 33/117/34 35/118/34
f 35/118/34 37/119/34 31/69/34
f 39/120/34 41/121/34 43/122/34
f 43/122/34 45/123/34 47/70/34
f 47/70/34 49/124/34 51/125/34
f 51/125/34 53/126/34 55/127/34
f 55/127/34 57/128/34 63/102/34
f 59/129/34 61/130/34 63/102/34
f 63/102/34 3/104/34 15/71/34
f 7/106/34 13/109/34 15/71/34
f 15/71/34 21/112/34 23/113/34
f 25/114/34 27/115/34 31/69/34
f 31/69/34 37/119/34 39/120/34
f 39/120/34 43/122/34 47/70/34
f 47/70/34 51/125/34 63/102/34
f 57/128/34 59/129/34 63/102/34
f 3/104/34 7/106/34 15/71/34
f 15/71/34 23/113/34 31/69/34
f 31/69/34 39/120/34 47/70/34
f 51/125/34 55/127/34 63/102/34
f 63/102/34 15/71/34 47/70/34
